<?xml version="1.0" encoding="UTF-8" standalone="no" ?>
<!DOCTYPE svg PUBLIC "-//W3C//DTD SVG 1.1//EN" "http://www.w3.org/Graphics/SVG/1.1/DTD/svg11.dtd">
<svg xmlns="http://www.w3.org/2000/svg" xmlns:xlink="http://www.w3.org/1999/xlink" version="1.1" width="1280" height="1024" viewBox="0 0 1280 1024" xml:space="preserve">
<desc>Created with Fabric.js 5.3.0</desc>
<defs>
</defs>
<g transform="matrix(1 0 0 1 640 512)" id="background-logo"  >
<rect style="stroke: none; stroke-width: 0; stroke-dasharray: none; stroke-linecap: butt; stroke-dashoffset: 0; stroke-linejoin: miter; stroke-miterlimit: 4; fill: rgb(255,255,255); fill-opacity: 0; fill-rule: nonzero; opacity: 1;"  paint-order="stroke"  x="-640" y="-512" rx="0" ry="0" width="1280" height="1024" />
</g>
<g transform="matrix(1.9211538461538462 0 0 1.9211538461538462 640 396.55806903093463)" id="logo-logo"  >
<g style=""  paint-order="stroke"   >
		<g transform="matrix(0.496891456305892 0 0 0.496891456305892 0 0)"  >
<path style="stroke: none; stroke-width: 1; stroke-dasharray: none; stroke-linecap: butt; stroke-dashoffset: 0; stroke-linejoin: miter; stroke-miterlimit: 4; fill: rgb(19,104,231); fill-rule: nonzero; opacity: 1;"  paint-order="stroke"  transform=" translate(-338.495, -375.9649999999999)" d="M 379.27 396.88 L 297.71999999999997 396.88 L 297.71999999999997 190.35 L 204.16999999999996 190.35 L 204.16999999999996 392.4 C 204.16999999999996 441.16999999999996 243.23999999999995 480.99 291.71999999999997 482.2 L 291.71999999999997 561.5799999999999 L 340.25 561.5799999999999 C 413.35 561.5799999999999 472.82 502.1099999999999 472.82 429.00999999999993 L 472.82 255.4 L 379.27 255.4 L 379.27 396.88 Z M 379.27 402.88 L 379.27 476.23 L 297.71999999999997 476.23 L 297.71999999999997 402.88 L 379.27 402.88 Z M 210.17 196.35 L 291.71999999999997 196.35 L 291.71999999999997 396.88 L 210.28999999999996 396.88 C 210.20999999999995 395.4 210.16999999999996 393.9 210.16999999999996 392.4 L 210.16999999999996 196.35 Z M 210.85 402.88 L 291.72 402.88 L 291.72 476.17 C 250.08000000000004 475.05 215.93 443.43 210.85000000000002 402.88 Z M 340.25 555.59 L 297.72 555.59 L 297.72 482.24 L 455.07000000000005 482.24 C 434.93000000000006 525.52 391.0400000000001 555.59 340.25000000000006 555.59 Z M 385.27 261.40000000000003 L 466.82 261.40000000000003 L 466.82 429.02000000000004 C 466.82 445.70000000000005 463.57 461.64000000000004 457.68 476.24 L 385.27 476.24 L 385.27 261.4 Z" stroke-linecap="round" />
</g>
</g>
</g>
<g transform="matrix(1.9211538461538462 0 0 1.9211538461538462 642.4302596153846 679.8476541479098)" id="text-logo"  >
<g style=""  paint-order="stroke"   >
		<g transform="matrix(1 0 0 1 0 0)" id="text-logo-path-0"  >
<path style="stroke: none; stroke-width: 0; stroke-dasharray: none; stroke-linecap: butt; stroke-dashoffset: 0; stroke-linejoin: miter; stroke-miterlimit: 4; fill: rgb(19,104,231); fill-rule: nonzero; opacity: 1;"  paint-order="stroke"  transform=" translate(-201.135, 16.400000000000002)" d="M 15.96 0.55 Q 11.55 0.55 8.76 -1.2 Q 5.98 -2.94 4.71 -5.73 Q 3.45 -8.51 3.45 -11.73 L 3.45 -11.73 L 3.45 -32.8 L 7.22 -32.8 L 7.22 -12.65 Q 7.22 -8.28 9.11 -5.61 Q 10.99 -2.94 15.96 -2.94 L 15.96 -2.94 Q 24.7 -2.94 24.7 -12.65 L 24.7 -12.65 L 24.7 -32.8 L 28.43 -32.8 L 28.43 -12.19 Q 28.43 -8.79 27.21 -5.91 Q 25.99 -3.04 23.21 -1.24 Q 20.42 0.55 15.96 0.55 L 15.96 0.55 L 15.96 0.55 Z M 68.26 0 L 47.66 -30.77 L 48.81 -32.8 L 50.42 -32.8 L 72.13 -0.83 L 70.1 0 L 68.26 0 Z M 46.37 0 L 46.37 -32.8 L 50.05 -32.8 L 50.05 0 L 46.37 0 Z M 68.86 0 L 68.86 -32.8 L 72.54 -32.8 L 72.54 0 L 68.86 0 Z M 90.94 0 L 90.94 -32.8 L 94.71 -32.8 L 94.71 0 L 90.94 0 Z M 135.65 -32.98 L 145.27 -32.98 Q 149.55 -32.98 152.1 -31.39 Q 154.65 -29.81 155.69 -27.51 Q 156.72 -25.21 156.72 -22.77 L 156.72 -22.77 Q 156.72 -20.01 155.48 -17.78 Q 154.24 -15.55 151.69 -14.21 Q 149.13 -12.88 145.36 -12.88 L 145.36 -12.88 L 139.52 -12.88 L 139.52 0 L 135.65 0 L 135.65 -32.98 Z M 146 -16.28 Q 149.59 -16.28 151.25 -18.01 Q 152.9 -19.73 152.9 -22.77 L 152.9 -22.77 Q 152.9 -26.86 150.6 -28.18 Q 148.3 -29.49 145.27 -29.49 L 145.27 -29.49 L 139.52 -29.49 L 139.52 -16.28 L 146 -16.28 Z M 173.97 -32.8 L 185.75 -32.8 Q 188.19 -32.8 190.33 -31.67 Q 192.46 -30.54 193.78 -28.52 Q 195.09 -26.5 195.09 -23.97 L 195.09 -23.97 Q 195.09 -20.84 193.09 -18.31 Q 191.08 -15.78 188.05 -15 L 188.05 -15 L 188.74 -13.89 L 197.43 -0.64 L 197.43 0 L 193.57 0 L 184.14 -14.44 L 177.74 -14.44 L 177.74 0 L 173.97 0 L 173.97 -32.8 Z M 185.24 -17.85 Q 186.48 -17.85 187.89 -18.56 Q 189.29 -19.27 190.26 -20.68 Q 191.22 -22.08 191.22 -23.97 L 191.22 -23.97 Q 191.22 -26.13 189.61 -27.71 Q 188 -29.3 185.43 -29.3 L 185.43 -29.3 L 177.74 -29.3 L 177.74 -17.85 L 185.24 -17.85 Z M 227.75 0.55 Q 222.87 0.55 219.21 -1.7 Q 215.56 -3.96 213.62 -7.82 Q 211.69 -11.68 211.69 -16.38 L 211.69 -16.38 Q 211.69 -21.07 213.65 -24.95 Q 215.6 -28.84 219.26 -31.1 Q 222.92 -33.35 227.75 -33.35 L 227.75 -33.35 Q 232.62 -33.35 236.3 -31.07 Q 239.98 -28.8 241.96 -24.93 Q 243.94 -21.07 243.94 -16.38 L 243.94 -16.38 Q 243.94 -11.68 241.98 -7.82 Q 240.03 -3.96 236.35 -1.7 Q 232.67 0.55 227.75 0.55 L 227.75 0.55 L 227.75 0.55 Z M 227.79 -2.94 Q 231.79 -2.94 234.55 -4.81 Q 237.31 -6.67 238.69 -9.75 Q 240.07 -12.83 240.07 -16.42 L 240.07 -16.42 Q 240.07 -20.01 238.72 -23.07 Q 237.36 -26.13 234.58 -27.99 Q 231.79 -29.85 227.79 -29.85 L 227.79 -29.85 Q 223.79 -29.85 221.03 -27.99 Q 218.27 -26.13 216.91 -23.07 Q 215.56 -20.01 215.56 -16.42 L 215.56 -16.42 Q 215.56 -12.83 216.91 -9.75 Q 218.27 -6.67 221.03 -4.81 Q 223.79 -2.94 227.79 -2.94 L 227.79 -2.94 L 227.79 -2.94 Z M 271.68 0.55 Q 269.01 0.55 266.36 -0.67 Q 263.72 -1.89 261.99 -4.39 Q 260.27 -6.9 260.27 -10.49 L 260.27 -10.49 L 260.27 -15.09 L 264.04 -15.09 L 264.04 -10.53 Q 264.04 -6.99 266.13 -4.97 Q 268.23 -2.94 271.68 -2.94 L 271.68 -2.94 Q 274.48 -2.94 276.55 -4.51 Q 278.62 -6.07 278.62 -10.07 L 278.62 -10.07 L 278.62 -32.8 L 282.3 -32.8 L 282.35 -10.03 Q 282.35 -6.62 280.78 -4.23 Q 279.22 -1.84 276.76 -0.64 Q 274.3 0.55 271.68 0.55 L 271.68 0.55 L 271.68 0.55 Z M 266.66 -29.39 L 266.66 -32.8 L 282.3 -32.8 L 282.3 -29.39 L 266.66 -29.39 Z M 300.75 0 L 300.75 -32.8 L 321.08 -32.8 L 321.08 -29.3 L 304.52 -29.3 L 304.52 -18.91 L 316.48 -18.91 L 316.48 -15.41 L 304.52 -15.41 L 304.52 -3.5 L 321.49 -3.5 L 321.49 0 L 300.75 0 Z M 337.36 0 L 337.36 -32.8 L 341.14 -32.8 L 341.14 -16.65 L 355.95 -32.8 L 360.32 -32.8 L 360.32 -32.34 L 347.94 -18.77 L 361.84 -0.46 L 361.84 0 L 357.65 0 L 345.41 -16.19 L 341.09 -11.91 L 341.14 0 L 337.36 0 Z M 385.43 0 L 385.43 -29.3 L 375.27 -29.3 L 375.27 -32.8 L 398.82 -32.8 L 398.82 -29.3 L 389.21 -29.3 L 389.21 0 L 385.43 0 Z" stroke-linecap="round" />
</g>
</g>
</g>
</svg>